<svg version="1" xmlns="http://www.w3.org/2000/svg" width="700pt" height="700pt" viewBox="0 0 700 700"><path d="M199 1c-3 .4-7.7 1-10.5 1.4-8.3 1.1-22.3 4.6-32.4 8.1-14.4 5-15.7 5.5-27.6 11.4-54 26.7-98 76.3-117.3 132.2-5 14.4-7.6 26.1-10.2 45.4-1 7.3-.7 302 .3 305.5.4 1.4 1 4.5 1.3 7 .3 2.5 1.7 9.1 3 14.7 17.5 73.7 77.6 138.5 150.7 162.8 13.9 4.6 28.8 7.9 42.2 9.4 10.2 1.2 292.6 1.2 302 .1 32.6-4 61.1-13.8 87.9-30.2 9.2-5.7 16.3-10.4 17.6-11.8.3-.3 2.1-1.7 4-3 4-2.8 7.1-5.4 15-12.5 41.4-37.4 68.6-89.1 73.8-140 .4-3.9.7-73.6.7-155 0-155.8.1-149-3.9-168.5-8.3-39.4-30.5-79.4-61.6-110.9-28.8-29.3-68.7-52.4-105.9-61.2C504.8.3 514.7.6 353.5.4 271.5.3 202 .6 199 1zm63.5 217.3c0 13-.3 21.1-1 21.6-.5.4-29.9.7-65.2.7-42.1-.1-64.4.2-64.7.9-.2.6-.3 49.7-.4 109.2v108.1l2.2.4c1.1.2 30.7.3 65.6.2l63.5-.1V503h-175l.1-152.8c.1-84 .2-152.8.3-153 0-.1 39.4-.1 87.3 0l87.3.3v20.8zm306.4.5v21.8h-65.4c-36-.1-65.6.1-65.6.4-.1.3-.2 20-.3 43.7l-.1 43.3h5c6.2.1 123.6.1 125.2 0 .9 0 1.1-10.7 1.1-42.9 0-23.7.2-43.3.5-43.8.4-.6 33.5-.9 41.7-.4 1.3.1 1.5 5.5 1.5 43 0 23.6-.3 43.3-.7 43.6-.4.4-10.2.7-21.8.7l-21-.2-.1 2.8v21.9l.1 19.2h-20.3c-11.1 0-21 0-21.9.1-1.7 0-1.8 1.7-1.8 21.8v21.9l-21.2-.2c-11.7-.2-21.6-.3-22-.4-.4 0-.7-9.6-.6-21.1 0-11.6-.2-21.3-.4-21.6-.4-.4-32-.7-41.8-.4-1.3 0-1.5 7.9-1.5 65.5V503h-21.7c-20.1 0-21.8-.1-21.9-1.8-.1-2.3-.1-299 0-302l.1-2.2h174.8l.1 21.8zM305 240.9c1.3.1 1.5 12.8 1.4 108.7-.1 75.6-.4 108.8-1.1 109.2-1.5.9-41.1.7-42.1-.2-.4-.4-.7-49.7-.7-109.4V240.5l20.5.2c11.3.1 21.2.2 22 .2zm263.7 195.9c.1 19 0 21.3-1.5 22-.9.4-10.7.7-21.7.7l-20-.1-.3-20.9c-.1-11.5-.1-21.4.2-22 .2-.6 8-1 21.7-1h21.4l.2 21.3zm43.8 44.2v21.5l-21.8.3c-11.9.1-21.7-.1-21.7-.5-.1-1.1-.1-40.6 0-41.9 0-.7 6.8-1 21.8-1l21.7.1V481z"/></svg>